# xmcd
#
# Track frame offsets: 
#        150
#        15512
#        31312
#        51815
#        67467
#        85705
#        100117
#        135987
#        162505
#        178355
#        195747
#        216227
#        230777
#        246662
#        273092
#        295007
#
# Disc length: 4187 seconds
#
# Revision: 0
# Processed by: cddbd v1.5.2PL0 Copyright (c) Steve Scherf et al.
# Submitted via: ExactAudioCopy v0.99pb4
#
DISCID=ee105910
DTITLE=Brian DeMarco - Angel Face
DYEAR=2006
DGENRE=Folk/Rock
TTITLE0=Angel Face Part I
TTITLE1=Nobody from Nowhere
TTITLE2=Dragging You Down
TTITLE3=Catch a Dream
TTITLE4=Like Goliath Fell
TTITLE5=Old Friends
TTITLE6=Journey to Hear
TTITLE7=7 come 11
TTITLE8=Quieting My Mind
TTITLE9=So Many Pieces
TTITLE10=World Gone Wrong
TTITLE11=Straw House
TTITLE12=Rise Like a Son
TTITLE13=The Gandhi Song
TTITLE14=Fill the Page
TTITLE15=Angel Face Part II
EXTD=
EXTT0=
EXTT1=
EXTT2=
EXTT3=
EXTT4=
EXTT5=
EXTT6=
EXTT7=
EXTT8=
EXTT9=
EXTT10=
EXTT11=
EXTT12=
EXTT13=
EXTT14=
EXTT15=
PLAYORDER=
